<svg width="24" height="24" viewBox="0 0 24 24" fill="none" xmlns="http://www.w3.org/2000/svg">
<path d="M9.37469 8.26053C9.78308 8.19135 10.1702 8.46633 10.2394 8.87473L10.7676 11.9926C10.8368 12.401 10.5618 12.7881 10.1534 12.8573C9.74503 12.9265 9.35787 12.6515 9.28868 12.2431L8.7605 9.12527C8.69131 8.71688 8.96629 8.32972 9.37469 8.26053Z" fill="#0A62AA"/>
<path d="M14.7888 8.87473C14.858 8.46633 15.2452 8.19135 15.6536 8.26053C16.0619 8.32972 16.3369 8.71688 16.2677 9.12527L15.7396 12.2431C15.6704 12.6515 15.2832 12.9265 14.8748 12.8573C14.4664 12.7881 14.1914 12.401 14.2606 11.9926L14.7888 8.87473Z" fill="#0A62AA"/>
<path fill-rule="evenodd" clip-rule="evenodd" d="M2.24872 2.29245C1.85795 2.15507 1.4298 2.36047 1.29242 2.75124C1.15503 3.14201 1.36044 3.57016 1.7512 3.70754L2.01241 3.79938C2.68002 4.0341 3.11877 4.18965 3.44162 4.34805C3.74484 4.49684 3.87851 4.61727 3.96657 4.74613C4.05683 4.87822 4.12653 5.05964 4.16587 5.42299C4.20702 5.80319 4.20804 6.29841 4.20804 7.03836V9.76C4.20804 11.2125 4.22167 12.2599 4.35872 13.0601C4.50505 13.9144 4.79718 14.5261 5.34341 15.1022C5.93727 15.7286 6.69008 16.0012 7.58632 16.1283C8.44455 16.25 9.5344 16.25 10.8801 16.25L16.2858 16.25C17.0275 16.25 17.6516 16.25 18.1565 16.1882C18.6923 16.1227 19.1809 15.9794 19.6074 15.6318C20.0339 15.2842 20.2729 14.8346 20.4452 14.3232C20.6077 13.8411 20.7336 13.2299 20.8833 12.5035L21.3923 10.0342L21.3932 10.0296L21.4037 9.97727C21.5683 9.15238 21.7069 8.45849 21.7413 7.90038C21.7775 7.31418 21.7108 6.73617 21.3289 6.23978C21.094 5.93435 20.7636 5.76145 20.4631 5.65587C20.1566 5.54817 19.8101 5.48587 19.4603 5.44678C18.7733 5.36997 17.9386 5.36999 17.12 5.37L5.66784 5.37C5.66456 5.33325 5.661 5.2971 5.65715 5.26157C5.60342 4.76519 5.48701 4.31247 5.20503 3.89983C4.92085 3.48397 4.543 3.21763 4.10237 3.00143C3.69028 2.79923 3.16665 2.61515 2.55012 2.39842L2.24872 2.29245ZM5.70803 6.87H17.0888C17.9452 6.87 18.6989 6.871 19.2937 6.93749C19.5892 6.97053 19.8104 7.01643 19.9659 7.07104C20.0929 7.11568 20.1359 7.15214 20.1421 7.15741C20.2034 7.23882 20.2702 7.38651 20.2442 7.80797C20.2168 8.25154 20.1003 8.84379 19.9227 9.73373L19.9222 9.73595L19.4234 12.1561C19.2621 12.9389 19.1535 13.4593 19.0238 13.8442C18.9006 14.2095 18.785 14.367 18.6598 14.469C18.5346 14.571 18.357 14.6525 17.9743 14.6994C17.5712 14.7487 17.0396 14.75 16.2403 14.75H10.9374C9.52065 14.75 8.53759 14.7482 7.79692 14.6432C7.08211 14.5418 6.70448 14.3576 6.43194 14.0702C6.11178 13.7325 5.93909 13.4018 5.83719 12.8069C5.72603 12.1578 5.70804 11.249 5.70804 9.76L5.70803 6.87Z" fill="#0A62AA"/>
<path fill-rule="evenodd" clip-rule="evenodd" d="M7.49996 21.75C6.25732 21.75 5.24996 20.7426 5.24996 19.5C5.24996 18.2574 6.25732 17.25 7.49996 17.25C8.7426 17.25 9.74996 18.2574 9.74996 19.5C9.74996 20.7426 8.7426 21.75 7.49996 21.75ZM6.74996 19.5C6.74996 19.9142 7.08575 20.25 7.49996 20.25C7.91417 20.25 8.24996 19.9142 8.24996 19.5C8.24996 19.0858 7.91417 18.75 7.49996 18.75C7.08575 18.75 6.74996 19.0858 6.74996 19.5Z" fill="#0A62AA"/>
<path fill-rule="evenodd" clip-rule="evenodd" d="M16.5 21.7501C15.2573 21.7501 14.25 20.7427 14.25 19.5001C14.25 18.2574 15.2573 17.2501 16.5 17.2501C17.7426 17.2501 18.75 18.2574 18.75 19.5001C18.75 20.7427 17.7426 21.7501 16.5 21.7501ZM15.75 19.5001C15.75 19.9143 16.0857 20.2501 16.5 20.2501C16.9142 20.2501 17.25 19.9143 17.25 19.5001C17.25 19.0859 16.9142 18.7501 16.5 18.7501C16.0857 18.7501 15.75 19.0859 15.75 19.5001Z" fill="#0A62AA"/>
</svg>
